# xmcd CD database file
#
# Track frame offsets:
#	150
#	33487
#	58306
#	108768
#	151133
#	165407
#	204095
#	243311
#	266590
#
# Disc length: 3636 seconds
#
# Revision: 0
# Processed by: cddbd v1.5.2PL0 Copyright (c) Steve Scherf et al.
# Submitted via: CDex 1.50
#
DISCID=6a0e3209
DTITLE=Hilary Noble and Rebecca Cline - Enclave
DYEAR=2005
DGENRE=Jazz
TTITLE0=Cha-Nando
TTITLE1=Viva Freire
TTITLE2=Dragon Slayer
TTITLE3=You´D Be So Nice To Come Home
TTITLE4=Eleven Ruminations
TTITLE5=Once Eleven
TTITLE6=Dark Nebula
TTITLE7=Comfort Zone
TTITLE8=Rumbanations
EXTD=YEAR: 2005
EXTT0=
EXTT1=
EXTT2=
EXTT3=
EXTT4=
EXTT5=
EXTT6=
EXTT7=
EXTT8=
PLAYORDER=
